<?xml version="1.0" standalone="no"?>
<!DOCTYPE svg PUBLIC "-//W3C//DTD SVG 20010904//EN"
 "http://www.w3.org/TR/2001/REC-SVG-20010904/DTD/svg10.dtd">
<svg version="1.0" xmlns="http://www.w3.org/2000/svg"
 width="640.000000pt" height="640.000000pt" viewBox="0 0 640.000000 640.000000"
 preserveAspectRatio="xMidYMid meet">
<metadata>
Created by potrace 1.11, written by Peter Selinger 2001-2013
</metadata>
<g transform="translate(0.000000,640.000000) scale(0.100000,-0.100000)"
fill="#000000" stroke="none">
<path d="M3654 6196 c-7 -6 -21 -19 -32 -28 -12 -10 -24 -30 -27 -45 -3 -15
-12 -41 -20 -58 -7 -16 -19 -44 -26 -62 -7 -17 -17 -29 -21 -27 -4 3 -8 -11
-8 -30 0 -19 -4 -38 -10 -41 -6 -4 -10 10 -10 34 0 23 -4 41 -9 41 -10 0 -23
-163 -25 -307 0 -57 -4 -103 -8 -103 -5 0 -8 -12 -7 -27 l1 -28 9 25 c6 19 8
13 6 -28 -1 -28 1 -52 5 -52 9 0 18 -82 20 -183 1 -48 5 -82 9 -75 4 7 9 2 12
-13 l4 -24 2 24 c1 16 6 21 15 18 8 -3 17 -1 20 6 2 7 5 2 5 -11 1 -15 -3 -21
-10 -16 -6 3 -3 -5 6 -20 13 -19 16 -37 12 -64 -5 -25 -3 -32 3 -22 5 8 10 25
10 37 0 29 10 53 22 53 5 0 6 -5 2 -12 -4 -7 -3 -8 4 -4 7 4 12 18 12 32 0 13
5 24 10 24 13 0 13 -26 -1 -53 -9 -16 -9 -22 -1 -25 9 -3 9 -9 2 -23 -8 -15
-7 -19 3 -19 28 0 39 55 36 177 -7 292 -4 466 9 471 6 2 10 7 7 12 -2 4 2 29
10 56 8 27 17 64 20 83 3 18 12 43 20 55 8 11 15 35 15 54 0 18 5 42 10 53 7
12 7 19 1 19 -6 0 -8 7 -5 15 4 8 1 15 -6 15 -7 0 -9 8 -5 20 7 23 -12 63 -26
55 -5 -4 -9 -2 -9 3 0 16 -44 31 -56 18z"/>
<path d="M3522 6099 c-27 -25 -32 -36 -30 -72 l1 -42 4 42 c3 32 11 48 35 68
17 14 29 28 26 30 -2 2 -18 -9 -36 -26z"/>
<path d="M2315 6100 c-10 -11 -26 -20 -37 -20 -10 0 -18 -5 -18 -12 0 -6 -8
-4 -19 6 -14 13 -21 14 -27 5 -4 -7 -3 -10 3 -6 16 10 30 -31 41 -113 7 -60
17 -87 47 -134 20 -32 44 -79 52 -105 9 -25 24 -58 34 -72 42 -60 66 -136 75
-239 3 -30 9 -68 14 -85 5 -16 9 -39 9 -50 0 -37 13 -85 23 -85 6 0 7 -7 4
-16 -3 -8 -2 -12 4 -9 6 3 10 -2 11 -12 0 -12 2 -13 6 -5 4 10 9 7 17 -8 16
-32 31 -21 29 20 -2 31 -1 33 9 15 6 -11 19 -25 27 -32 13 -10 18 -7 28 15 8
18 12 21 13 10 0 -10 7 -18 15 -18 18 0 20 36 6 107 -6 26 -12 81 -15 121 -11
140 -55 260 -156 428 -28 46 -53 98 -56 116 l-5 33 24 -38 c35 -55 45 -59 14
-6 -14 26 -23 49 -20 53 3 3 1 6 -6 6 -6 0 -23 24 -36 53 -14 28 -25 45 -25
37 0 -8 11 -34 25 -58 23 -41 24 -45 9 -70 l-15 -27 4 27 c2 15 1 25 -3 23 -4
-3 -13 8 -20 24 -6 16 -25 44 -40 61 -27 31 -28 34 -13 56 13 21 13 24 1 24
-8 0 -23 -9 -33 -20z m205 -360 c6 -11 8 -20 6 -20 -3 0 -10 9 -16 20 -6 11
-8 20 -6 20 3 0 10 -9 16 -20z m46 -85 c20 -48 17 -57 -6 -15 -20 36 -24 50
-14 50 3 0 12 -16 20 -35z m53 -155 c0 -9 -4 -8 -9 5 -5 11 -9 27 -9 35 0 9 4
8 9 -5 5 -11 9 -27 9 -35z m24 -130 c3 -36 2 -54 -2 -40 -4 14 -11 54 -14 90
-3 37 -3 54 2 40 4 -14 10 -54 14 -90z"/>
<path d="M2410 6105 c-7 -9 -11 -17 -9 -20 3 -2 10 5 17 15 14 24 10 26 -8 5z"/>
<path d="M2230 5893 c0 -6 8 -17 18 -24 16 -13 16 -13 2 6 -8 11 -16 22 -17
24 -2 2 -3 0 -3 -6z"/>
<path d="M940 5872 c0 -4 6 -16 13 -26 10 -14 14 -15 14 -4 0 7 -6 19 -14 26
-7 7 -13 9 -13 4z"/>
<path d="M870 5838 c0 -4 5 -19 12 -35 6 -15 11 -31 10 -35 -1 -5 3 -8 9 -8 5
0 7 -5 4 -10 -3 -6 1 -13 9 -16 9 -3 14 -9 11 -13 -2 -4 7 -19 21 -34 14 -15
22 -27 20 -27 -6 0 12 -32 58 -101 16 -24 39 -60 51 -79 72 -118 177 -263 223
-310 30 -30 81 -85 114 -121 32 -37 66 -66 76 -65 9 0 17 -4 17 -11 0 -6 4
-15 9 -20 5 -4 6 -3 3 4 -4 6 -2 13 5 15 6 2 -5 14 -26 26 -23 13 -34 27 -30
34 4 7 3 8 -5 4 -12 -8 -55 33 -93 88 -16 24 -9 20 33 -19 110 -102 137 -130
133 -136 -2 -4 8 -14 21 -23 14 -9 23 -21 20 -26 -3 -6 1 -7 9 -4 11 4 16 0
16 -12 0 -9 2 -15 5 -12 9 8 59 -43 88 -89 15 -24 32 -43 37 -43 5 0 25 -16
45 -35 19 -20 35 -31 35 -26 0 5 -4 13 -10 16 -15 9 -12 25 4 25 8 0 17 -7 20
-16 3 -8 9 -13 13 -11 11 7 33 -19 25 -29 -4 -4 -1 -4 6 0 7 4 15 1 18 -8 9
-24 60 -20 84 6 11 13 18 29 15 38 -4 8 -7 19 -8 24 -1 5 -10 18 -20 28 -10
11 -16 26 -13 33 5 14 -11 33 -29 34 -5 0 -12 9 -15 21 -3 12 -8 21 -13 20
-12 -1 -147 110 -147 122 0 6 -8 17 -17 25 -10 8 -12 11 -4 7 8 -4 -14 21 -47
54 -34 34 -65 62 -68 61 -3 -1 -25 17 -48 40 -23 23 -46 38 -51 34 -4 -5 -5
-3 -2 3 3 6 -28 44 -69 85 -123 121 -244 283 -236 317 2 6 -2 12 -7 12 -11 0
-52 86 -50 104 3 20 -13 46 -24 39 -6 -4 -8 0 -4 11 6 15 -17 35 -28 25 -2 -2
10 -38 25 -78 32 -82 17 -79 -29 6 -27 49 -61 70 -61 36 -1 -14 -6 -12 -26 12
l-26 30 18 -32 c14 -26 16 -35 6 -45 -7 -7 -12 -23 -12 -37 l0 -26 -20 25
c-11 14 -20 29 -20 33 0 4 -5 13 -10 20 -6 7 -22 27 -35 46 -14 19 -25 32 -25
29z m492 -473 c3 3 11 -2 19 -12 9 -11 10 -14 2 -9 -20 12 -15 -5 9 -31 25
-27 47 -31 27 -5 -7 9 -1 6 13 -7 15 -13 25 -28 22 -32 -3 -5 22 -36 55 -69
57 -57 81 -75 65 -47 -5 8 -2 7 9 -2 10 -8 15 -16 12 -19 -7 -8 46 -62 55 -57
4 3 16 -5 26 -18 16 -18 16 -19 2 -8 -10 7 -18 10 -18 5 0 -4 -15 7 -33 24
-18 18 -36 30 -39 27 -7 -7 -201 191 -240 245 -19 26 -24 38 -12 27 11 -9 23
-15 26 -12z m-22 -203 c0 -10 -65 47 -79 69 -8 14 5 6 32 -21 26 -24 47 -46
47 -48z m125 -152 c10 -11 16 -20 13 -20 -3 0 -13 9 -23 20 -10 11 -16 20 -13
20 3 0 13 -9 23 -20z m453 -262 c8 -8 15 -8 29 3 16 13 17 12 4 -3 -9 -12 -10
-18 -2 -18 15 0 14 -18 -1 -34 -11 -11 -17 -8 -35 17 -13 17 -23 35 -23 39 0
12 14 10 28 -4z"/>
<path d="M2330 5541 c0 -6 4 -13 10 -16 6 -3 7 1 4 9 -7 18 -14 21 -14 7z"/>
<path d="M5070 5474 c-34 -36 -136 -114 -150 -114 -6 0 -13 -7 -16 -15 -4 -8
-10 -13 -14 -10 -4 3 -11 -2 -14 -11 -3 -9 -11 -12 -18 -8 -7 4 -10 4 -6 -1 4
-4 -19 -36 -51 -70 -31 -34 -93 -110 -135 -169 -44 -60 -82 -103 -88 -99 -7 3
-8 1 -4 -5 9 -15 -73 -134 -87 -125 -6 3 -7 1 -3 -5 4 -6 -1 -23 -10 -37 -17
-26 -34 -33 -34 -14 0 5 4 8 8 5 5 -3 9 0 10 7 0 7 4 23 8 37 3 14 -5 5 -18
-20 -14 -25 -37 -63 -51 -84 -28 -40 -35 -62 -17 -51 6 3 10 11 10 16 0 16 46
79 53 73 3 -4 -6 -27 -20 -53 -18 -31 -22 -41 -10 -32 14 11 17 11 17 0 0 -8
6 -5 15 7 14 19 14 18 15 -3 0 -13 -5 -23 -11 -23 -5 0 -8 -4 -4 -10 3 -5 -3
-18 -15 -30 -11 -11 -17 -20 -12 -20 4 0 20 14 35 32 l28 33 -26 -41 c-31 -49
-47 -101 -34 -109 5 -4 9 -1 9 5 0 6 5 8 11 4 6 -3 9 -15 6 -25 -9 -32 10 -21
22 14 9 24 14 28 20 18 11 -17 34 -4 27 16 -3 8 -2 12 2 9 5 -3 48 52 95 122
152 224 317 410 432 489 33 22 69 50 79 62 11 11 24 21 30 21 12 1 56 82 56
105 0 20 -9 19 -32 -2 -19 -17 -19 -16 -12 11 6 26 5 28 -16 21 -15 -5 -20 -4
-16 4 4 6 2 11 -3 11 -6 0 -11 7 -11 15 0 8 -5 15 -11 15 -5 0 -7 -4 -4 -10 3
-5 4 -10 0 -10 -11 0 -23 45 -13 51 6 4 9 12 7 18 -3 7 -14 1 -29 -15z m10
-29 c0 -8 -7 -15 -16 -15 -14 0 -14 3 -4 15 7 8 14 15 16 15 2 0 4 -7 4 -15z"/>
<path d="M4989 5433 c-13 -16 -12 -17 4 -4 9 7 17 15 17 17 0 8 -8 3 -21 -13z"/>
<path d="M4764 5238 c-42 -45 -99 -113 -68 -83 34 33 126 135 123 135 -3 0
-27 -24 -55 -52z"/>
<path d="M4659 5123 c-13 -16 -12 -17 4 -4 9 7 17 15 17 17 0 8 -8 3 -21 -13z"/>
<path d="M4583 5005 c0 -8 4 -12 9 -9 5 3 6 10 3 15 -9 13 -12 11 -12 -6z"/>
<path d="M1750 4996 c0 -2 8 -10 18 -17 15 -13 16 -12 3 4 -13 16 -21 21 -21
13z"/>
<path d="M4500 4904 c-12 -19 -21 -37 -18 -39 2 -2 14 14 26 36 28 49 22 52
-8 3z"/>
<path d="M4365 4661 c-3 -5 -2 -12 3 -15 5 -3 9 1 9 9 0 17 -3 19 -12 6z"/>
<path d="M2875 4623 c-22 -2 -44 -11 -48 -19 -10 -17 -53 -19 -60 -1 -4 8 -6
7 -6 -3 -1 -20 -64 -40 -87 -27 -11 6 -15 6 -10 -1 3 -6 -18 -20 -49 -33 -30
-12 -55 -26 -55 -29 0 -7 -54 -25 -105 -35 -28 -5 -27 -4 15 25 54 36 42 40
-15 5 -22 -14 -49 -25 -60 -25 -11 0 -30 -7 -42 -15 -12 -8 -30 -12 -40 -9
-13 4 -14 3 -5 -4 11 -7 8 -11 -10 -17 -12 -4 -29 -6 -37 -5 -8 1 -10 -3 -5
-11 4 -8 3 -10 -4 -5 -16 10 -80 -26 -124 -68 -20 -20 -42 -36 -48 -36 -5 0
-10 -4 -10 -9 0 -5 -27 -42 -61 -82 -146 -174 -208 -290 -234 -436 -9 -49 -23
-108 -31 -132 -18 -56 -17 -63 2 -31 14 24 15 22 9 -30 -3 -30 -1 -100 5 -155
6 -55 13 -114 15 -130 2 -17 10 -55 19 -86 9 -31 18 -65 21 -77 2 -11 11 -34
19 -51 9 -16 16 -37 16 -45 0 -9 16 -48 35 -87 30 -61 32 -69 13 -53 l-22 19
19 -26 c11 -14 38 -50 61 -80 22 -30 73 -99 114 -154 254 -344 506 -570 800
-717 80 -40 147 -76 150 -79 3 -4 24 -12 48 -18 28 -8 40 -16 36 -24 -4 -7 -4
-9 0 -5 4 3 24 0 43 -9 20 -8 47 -12 62 -8 20 4 22 3 11 -5 -13 -8 -13 -10 3
-11 21 -2 20 -2 87 -22 174 -51 167 -50 279 -40 315 30 516 162 741 487 8 12
29 38 47 58 18 21 44 60 57 87 14 27 31 53 37 56 19 12 72 136 90 210 27 113
71 249 82 257 6 4 10 23 9 42 -2 20 1 36 6 36 4 0 9 16 10 37 2 20 5 39 7 43
10 16 33 262 30 330 -2 83 -13 150 -25 150 -8 0 -51 93 -74 163 -19 56 -50
120 -79 161 -12 16 -16 26 -9 22 7 -4 12 -3 12 1 0 26 -341 326 -412 362 -15
8 -25 17 -23 21 3 5 -2 11 -11 14 -10 4 -13 2 -9 -7 4 -6 1 -5 -7 3 -7 8 -18
16 -23 17 -24 4 -94 50 -88 58 5 4 3 5 -4 1 -6 -3 -35 7 -63 24 -28 17 -48 25
-44 18 4 -7 -1 -6 -12 3 -10 9 -35 20 -54 24 -62 12 -130 37 -130 47 0 5 4 7
9 3 5 -3 13 0 17 6 5 9 0 10 -16 6 -13 -3 -32 -1 -43 5 -15 8 -18 7 -12 -3 6
-9 2 -10 -16 -5 -65 20 -98 26 -146 26 -59 0 -157 45 -148 68 3 8 -6 12 -26
12 -17 0 -45 6 -62 13 -18 8 -48 19 -67 26 -38 13 -200 22 -265 14z m182 -69
c-3 -3 -12 -4 -19 -1 -8 3 -5 6 6 6 11 1 17 -2 13 -5z m-90 -10 c-3 -3 -12 -4
-19 -1 -8 3 -5 6 6 6 11 1 17 -2 13 -5z m-102 -151 c-11 -3 -24 -9 -29 -14 -6
-5 -21 -9 -35 -8 -23 0 -22 1 9 13 19 8 44 14 55 14 l20 0 -20 -5z m213 -6
c-8 -9 -28 -11 -58 -8 l-45 5 35 7 c19 3 45 7 58 8 19 1 21 -1 10 -12z m-318
-17 c0 -5 -17 -12 -37 -16 -21 -4 -75 -24 -119 -45 -45 -22 -87 -39 -95 -39
-21 1 148 81 201 95 25 7 46 13 48 14 1 0 2 -3 2 -9z m205 0 c-3 -5 -18 -10
-32 -10 -15 0 -34 -6 -42 -13 -9 -8 -42 -22 -73 -31 -32 -10 -60 -22 -64 -27
-3 -5 -15 -7 -28 -3 -17 4 -40 -8 -94 -51 -39 -31 -71 -59 -69 -63 1 -4 -4
-14 -11 -22 -21 -25 -90 -138 -116 -188 -28 -57 -53 -133 -61 -187 -3 -22 -11
-65 -18 -95 -18 -80 -14 -420 5 -434 8 -6 26 -45 41 -87 32 -89 92 -189 113
-189 8 0 14 -5 14 -11 0 -5 -6 -7 -12 -3 -8 4 -10 3 -5 -2 5 -5 14 -9 20 -9 6
0 17 -11 24 -25 7 -14 17 -24 21 -23 5 1 35 -26 68 -60 57 -59 48 -56 -26 8
l-35 30 25 -29 c14 -16 56 -50 94 -77 37 -26 102 -80 143 -119 42 -38 78 -70
80 -70 2 0 15 -12 29 -27 14 -16 22 -21 18 -13 -4 8 6 1 22 -15 43 -45 117
-88 221 -131 51 -20 90 -41 86 -47 -3 -5 3 -6 16 -2 11 3 21 2 21 -3 0 -16
227 -14 315 3 109 21 275 69 350 100 61 26 191 135 232 195 13 19 37 54 54 78
23 31 32 57 34 91 1 26 8 57 14 69 6 11 11 30 11 41 0 11 7 27 16 35 8 9 12
16 7 16 -4 0 -8 45 -9 100 0 60 3 95 9 88 5 -8 6 -4 2 10 -4 13 -18 65 -31
115 -27 105 -179 421 -197 410 -6 -3 -7 -1 -3 5 7 11 -29 62 -105 151 -28 33
-49 48 -61 46 -10 -2 -16 0 -13 6 4 5 11 7 16 4 5 -4 9 -1 9 4 0 6 -24 25 -52
42 -29 17 -68 41 -87 55 -19 13 -44 24 -55 24 -12 0 -26 4 -32 10 -6 6 -15 5
-24 -1 -13 -10 -13 -10 0 -6 9 3 24 -1 35 -9 10 -8 29 -14 43 -14 13 0 20 -4
17 -10 -3 -5 0 -7 7 -5 8 3 25 -6 38 -21 l25 -26 -30 7 c-40 9 -145 45 -170
58 -19 10 -19 10 0 18 16 6 14 7 -10 7 -16 -1 -60 4 -98 11 -119 20 -321 6
-449 -33 -25 -8 -50 -11 -54 -8 -4 4 -4 2 -1 -4 8 -15 -40 -47 -55 -38 -7 5
-8 3 -4 -5 6 -8 2 -11 -10 -9 -12 2 -18 -2 -16 -10 1 -8 -2 -11 -7 -8 -5 4
-22 -9 -36 -29 -15 -19 -32 -32 -38 -28 -6 3 -7 1 -3 -5 4 -7 2 -12 -3 -12 -6
0 -11 -6 -11 -12 0 -7 -14 -40 -31 -73 -60 -118 -69 -158 -69 -302 0 -72 4
-134 9 -137 4 -3 6 7 3 22 -8 42 3 24 43 -77 21 -51 46 -103 57 -115 28 -31
118 -154 118 -161 0 -4 -4 -3 -10 0 -5 3 -10 4 -10 2 0 -2 39 -29 88 -60 86
-54 192 -93 228 -84 12 3 8 5 -11 6 -67 3 -48 16 23 16 102 0 170 11 227 36
25 11 54 19 63 16 12 -2 6 -8 -20 -20 -21 -9 -38 -18 -38 -21 0 -3 16 2 36 10
48 20 171 138 196 189 11 22 27 48 35 57 8 9 12 22 7 30 -4 7 -3 10 1 5 10 -9
33 50 44 118 17 95 -27 218 -114 319 -49 56 -86 84 -63 46 7 -10 16 -16 21
-13 5 3 7 0 5 -8 -3 -8 4 -27 15 -44 l20 -30 -32 32 c-18 18 -38 30 -43 27 -6
-4 -4 -10 6 -16 9 -5 14 -13 11 -18 -3 -5 -1 -11 5 -15 5 -3 10 -16 10 -28 0
-17 2 -19 9 -7 6 8 7 18 4 24 -3 5 -1 6 5 2 6 -4 8 -14 5 -24 -6 -15 -5 -16
13 -2 15 11 16 11 7 0 -15 -17 -17 -34 -3 -25 6 3 10 2 10 -4 0 -5 -4 -12 -10
-16 -5 -3 -6 -13 -3 -23 5 -14 2 -13 -11 3 l-18 20 6 -20 c4 -11 -34 22 -84
74 -49 52 -93 92 -96 88 -4 -4 -3 -7 3 -7 6 0 19 -12 29 -27 17 -27 17 -27 0
-13 -10 8 -23 15 -30 17 -81 19 -106 25 -106 29 0 15 66 40 134 50 l81 12 -86
-2 c-48 0 -85 -4 -82 -8 2 -5 -10 -8 -26 -8 -17 0 -31 -4 -31 -10 0 -5 8 -7
18 -3 14 5 14 3 -3 -14 -14 -14 -39 -22 -79 -26 -52 -5 -57 -4 -45 9 9 8 35
18 60 23 40 8 41 9 11 10 -46 1 -82 -20 -127 -76 -22 -27 -28 -39 -14 -27 39
34 69 46 101 40 19 -4 27 -2 23 5 -5 7 9 8 41 5 59 -7 70 -16 20 -16 -39 0
-84 -19 -105 -44 -7 -9 -16 -14 -20 -12 -4 3 -8 -4 -8 -15 -2 -26 3 -24 44 11
18 17 41 30 51 30 10 0 4 -7 -14 -16 -18 -9 -42 -26 -55 -40 -21 -22 -21 -24
-4 -24 10 0 31 12 47 27 20 19 43 28 84 34 31 4 62 5 69 3 20 -8 94 -118 111
-166 9 -24 16 -71 17 -105 2 -60 1 -62 -38 -97 -74 -66 -112 -88 -159 -92 -25
-2 -56 -8 -68 -12 -21 -7 -44 -8 -108 -4 -14 1 -41 12 -60 24 -19 12 -37 23
-40 23 -35 10 -66 33 -99 78 -23 30 -41 58 -41 64 0 6 -11 35 -25 66 -24 51
-38 162 -35 271 1 49 73 124 155 162 78 35 131 43 315 48 126 3 228 -13 215
-34 -3 -6 1 -7 9 -4 9 4 18 -1 22 -10 3 -9 10 -13 15 -10 5 3 9 -1 9 -8 0 -11
2 -11 9 0 6 10 14 9 38 -5 17 -9 36 -26 43 -37 8 -12 -1 -8 -26 12 -21 17 -40
29 -43 26 -3 -3 3 -10 14 -16 38 -20 181 -173 199 -213 10 -22 45 -94 77 -160
32 -66 61 -138 64 -160 4 -22 12 -56 17 -75 6 -19 12 -56 13 -81 1 -25 5 -51
9 -57 17 -28 -11 -125 -49 -169 -5 -6 -21 -26 -35 -44 -29 -38 -58 -65 -66
-61 -3 2 -21 -11 -41 -28 -19 -17 -42 -29 -50 -26 -8 4 -11 2 -7 -5 4 -8 -1
-9 -16 -4 -17 5 -21 4 -15 -5 5 -9 4 -11 -4 -6 -6 4 -18 2 -26 -4 -8 -6 -24
-13 -37 -14 -13 -2 -54 -13 -93 -24 -104 -31 -253 -43 -329 -26 -142 31 -242
92 -385 234 -110 109 -157 146 -66 52 38 -40 66 -72 62 -72 -4 0 -31 21 -61
48 -30 26 -73 61 -96 77 -107 77 -239 244 -281 356 -37 97 -16 453 35 597 28
78 114 182 151 182 11 0 33 7 49 15 15 8 43 15 61 15 19 0 39 8 50 20 10 11
30 20 45 20 15 0 33 7 40 15 9 11 22 14 46 9 40 -7 103 15 147 52 16 13 36 24
44 24 9 0 30 8 47 19 71 43 229 35 384 -20 30 -11 58 -16 64 -13 7 5 8 2 3 -6
-6 -10 -4 -12 9 -7 11 5 15 3 10 -5 -5 -8 -2 -9 10 -5 9 4 15 3 12 -1 -7 -12
83 -54 97 -46 7 4 9 4 5 -1 -4 -4 25 -28 65 -52 39 -25 86 -57 102 -72 17 -15
39 -34 51 -42 12 -8 53 -42 91 -76 84 -75 137 -160 237 -383 68 -150 71 -158
74 -245 4 -100 -24 -293 -58 -410 -12 -38 -23 -80 -24 -92 -6 -45 -48 -139
-76 -173 -16 -19 -34 -40 -39 -46 -6 -7 -7 -15 -4 -18 4 -3 0 -6 -7 -6 -7 0
-10 -3 -7 -7 4 -3 -4 -16 -16 -27 -13 -12 -44 -53 -69 -91 -46 -70 -176 -211
-191 -207 -5 1 -6 -1 -3 -6 7 -12 -60 -76 -72 -68 -6 3 -14 1 -18 -5 -5 -8 -2
-10 7 -5 17 8 -7 -9 -72 -51 -99 -64 -113 -68 -249 -67 -118 0 -133 3 -280 46
-168 50 -212 57 -78 13 46 -16 84 -31 86 -35 2 -5 12 -5 24 -2 16 4 19 2 13
-8 -5 -9 -4 -11 3 -6 15 9 83 -4 77 -14 -3 -5 3 -6 12 -4 10 2 31 1 47 -4 22
-6 25 -10 15 -18 -18 -14 -102 3 -93 18 4 6 -1 8 -12 4 -11 -3 -44 1 -74 10
-30 9 -63 16 -72 17 -10 1 -18 5 -18 10 0 5 -7 7 -15 3 -8 -3 -15 -1 -15 5 0
6 -7 9 -15 5 -8 -3 -15 -1 -15 4 0 4 -21 16 -47 24 -63 21 -145 70 -136 81 5
4 2 5 -5 1 -14 -9 -54 2 -48 13 3 4 -28 23 -67 43 -180 90 -410 293 -566 501
-24 31 -47 57 -50 57 -4 0 -15 16 -24 35 -9 19 -21 35 -27 35 -5 0 -9 3 -8 8
4 9 -41 82 -51 82 -16 0 -88 112 -121 190 -91 212 -123 337 -119 468 2 86 38
204 96 320 43 87 190 261 236 281 18 7 39 17 47 22 52 31 113 51 163 54 58 3
108 18 136 39 32 25 172 67 214 64 18 -1 39 2 47 7 8 5 35 12 60 16 25 3 46 7
48 8 2 0 0 -3 -3 -9z m-405 -42 c0 -6 -3 -8 -6 -5 -4 3 -18 -2 -31 -13 -14
-11 -31 -16 -41 -13 -12 5 -6 11 24 24 48 21 54 22 54 7z m-75 -58 c-3 -5 -21
-9 -38 -9 l-32 2 35 7 c19 4 36 8 38 9 2 0 0 -3 -3 -9z m780 -19 c-3 -5 -22
-15 -43 -22 -20 -6 -46 -19 -57 -29 -21 -19 -90 -50 -109 -50 -18 1 26 30 45
30 10 0 31 11 47 25 39 33 132 69 117 46z m-125 -26 c0 -8 -49 -26 -85 -32
-44 -7 -23 8 32 23 27 7 49 13 51 13 1 1 2 -1 2 -4z m836 -36 c3 -6 -5 -3 -20
6 -14 10 -26 19 -26 22 0 7 39 -17 46 -28z m44 -15 c0 -8 -5 -12 -10 -9 -6 4
-8 11 -5 16 9 14 15 11 15 -7z m-1008 -14 c-19 -4 -39 -13 -45 -19 -6 -6 -21
-11 -32 -11 -12 0 -31 -9 -43 -20 -12 -11 -34 -20 -49 -19 l-28 1 31 9 c17 5
37 16 44 24 7 8 22 15 34 15 12 0 31 7 42 15 10 8 33 14 49 14 l30 -1 -33 -8z
m1057 -3 c6 -8 8 -17 4 -21 -4 -4 0 -4 8 -1 10 4 28 -6 48 -24 18 -16 34 -30
36 -30 3 -1 5 -4 6 -8 0 -5 10 -13 21 -19 11 -6 16 -14 11 -17 -11 -7 -68 40
-68 56 0 7 -10 13 -22 13 -12 1 -34 9 -48 18 -26 17 -35 32 -12 21 6 -4 3 1
-7 9 -16 13 -17 16 -4 16 8 0 21 -6 27 -13z m197 -165 c-8 -7 -56 30 -50 40 3
5 17 -1 30 -13 13 -12 22 -24 20 -27z m39 -22 c10 -11 16 -20 13 -20 -3 0 -13
9 -23 20 -10 11 -16 20 -13 20 3 0 13 -9 23 -20z m-364 -36 c23 -11 28 -18 20
-28 -13 -15 -4 -26 20 -26 9 0 36 -22 59 -50 50 -59 44 -64 -15 -12 -24 20
-67 55 -98 77 -51 38 -54 46 -19 54 2 1 17 -6 33 -15z m392 -24 c10 -12 9 -12
-4 -2 -9 6 -18 9 -21 6 -3 -3 -9 -1 -12 4 -9 15 22 8 37 -8z m-1183 -124 c0
-2 -7 -7 -16 -10 -8 -3 -12 -2 -9 4 6 10 25 14 25 6z m1202 -69 c23 -34 46
-65 52 -69 6 -4 8 -8 3 -8 -4 0 2 -18 13 -40 11 -23 18 -45 15 -49 -3 -5 1
-12 7 -14 10 -4 10 -6 0 -6 -10 -1 -59 91 -66 124 -3 16 -25 52 -39 67 -22 22
-53 73 -39 64 6 -4 31 -35 54 -69z m-391 26 c13 -16 12 -17 -3 -4 -17 13 -22
21 -14 21 2 0 10 -8 17 -17z m-61 -78 c19 -19 32 -35 29 -35 -3 0 -20 16 -39
35 -19 19 -32 35 -29 35 3 0 20 -16 39 -35z m557 -175 c4 -27 1 -25 -17 9 -9
19 -9 22 1 19 7 -2 14 -15 16 -28z m-760 -80 c13 -25 17 -49 13 -85 l-5 -50
-12 58 c-13 62 -53 157 -65 157 -5 0 -8 6 -8 13 1 16 54 -48 77 -93z m177 29
c7 -38 8 -74 1 -67 -9 9 -23 98 -15 98 4 0 10 -14 14 -31z m-731 -374 l21 -29
-26 19 c-14 11 -24 23 -21 28 2 4 0 7 -4 7 -5 0 -14 10 -22 23 l-14 22 23 -20
c12 -11 32 -33 43 -50z m-423 -150 c14 -19 14 -19 -2 -6 -10 7 -18 18 -18 24
0 6 1 8 3 6 1 -2 9 -13 17 -24z m165 -139 c17 -13 28 -26 25 -29 -3 -3 -25 13
-50 34 -47 42 -27 38 25 -5z m133 -131 c-7 -7 -98 81 -98 95 0 8 23 -10 51
-39 29 -28 50 -54 47 -56z m115 -48 c6 3 7 1 3 -5 -3 -5 0 -12 6 -15 7 -2 10
-7 7 -11 -8 -9 -66 40 -81 68 -8 15 -1 12 22 -11 18 -18 38 -30 43 -26z m-56
-4 c10 -8 11 -11 3 -7 -25 12 -50 36 -50 48 0 6 7 3 15 -7 7 -10 22 -25 32
-34z m107 -31 c3 -5 -1 -9 -9 -9 -8 0 -12 4 -9 9 3 4 7 8 9 8 2 0 6 -4 9 -8z
m16 -32 c8 -5 11 -10 5 -10 -5 0 -17 5 -25 10 -8 5 -10 10 -5 10 6 0 17 -5 25
-10z m60 -20 c18 -12 2 -12 -25 0 -13 6 -15 9 -5 9 8 0 22 -4 30 -9z m-879
-37 c13 -16 12 -17 -3 -4 -10 7 -18 15 -18 17 0 8 8 3 21 -13z m72 -93 c14
-22 24 -40 22 -40 -2 0 -18 18 -35 40 -17 22 -28 40 -23 40 5 0 21 -18 36 -40z
m190 -143 c15 -17 27 -26 27 -19 0 8 19 0 45 -19 24 -17 42 -36 39 -40 -8 -14
-24 -10 -24 6 0 8 -6 12 -13 9 -12 -4 -60 36 -197 165 -32 30 -24 26 25 -14
39 -31 82 -71 98 -88z m188 -131 c17 -10 28 -20 25 -23 -9 -10 -66 38 -65 55
1 14 2 14 6 1 2 -8 17 -23 34 -33z m1274 -124 c-39 -38 -93 -83 -120 -101
l-50 -32 50 43 c27 24 77 69 112 101 87 80 93 71 8 -11z m-1095 53 c0 -7 -30
-13 -34 -7 -3 4 4 9 15 9 10 1 19 0 19 -2z m613 -82 c-7 -2 -19 -2 -25 0 -7 3
-2 5 12 5 14 0 19 -2 13 -5z m-263 -183 c8 -5 11 -10 5 -10 -5 0 -17 5 -25 10
-8 5 -10 10 -5 10 6 0 17 -5 25 -10z m178 -37 c-16 -2 -40 -2 -55 0 -16 2 -3
4 27 4 30 0 43 -2 28 -4z"/>
<path d="M3618 3673 c6 -2 18 -2 25 0 6 3 1 5 -13 5 -14 0 -19 -2 -12 -5z"/>
<path d="M3673 3659 c9 -6 14 -15 11 -21 -4 -7 -2 -8 5 -4 14 9 -3 36 -23 36
-6 0 -3 -5 7 -11z"/>
<path d="M3705 3580 c6 -10 4 -12 -9 -7 -10 4 -5 -8 16 -32 31 -37 48 -44 48
-19 0 6 -3 8 -7 5 -10 -11 -42 23 -37 38 3 7 0 16 -7 21 -8 5 -10 3 -4 -6z"/>
<path d="M2850 3237 c0 -20 42 -91 95 -156 31 -39 59 -71 62 -71 2 0 -17 27
-44 60 -26 33 -62 86 -80 117 -18 32 -33 54 -33 50z"/>
<path d="M2361 3220 c0 -14 28 -72 29 -59 0 4 -7 22 -15 40 -8 19 -14 27 -14
19z"/>
<path d="M4381 3104 c0 -11 3 -14 6 -6 3 7 2 16 -1 19 -3 4 -6 -2 -5 -13z"/>
<path d="M2700 3086 c0 -2 8 -10 18 -17 15 -13 16 -12 3 4 -13 16 -21 21 -21
13z"/>
<path d="M2825 2970 c10 -11 20 -20 23 -20 3 0 -3 9 -13 20 -10 11 -20 20 -23
20 -3 0 3 -9 13 -20z"/>
<path d="M4401 2922 c0 -12 -17 -45 -37 -73 -20 -28 -31 -48 -25 -45 23 15 72
100 68 120 -4 20 -4 20 -6 -2z"/>
<path d="M3548 2883 c7 -3 16 -2 19 1 4 3 -2 6 -13 5 -11 0 -14 -3 -6 -6z"/>
<path d="M3445 2870 c-13 -5 -14 -9 -5 -9 8 0 24 4 35 9 13 5 14 9 5 9 -8 0
-24 -4 -35 -9z"/>
<path d="M3110 2090 c8 -5 22 -9 30 -9 10 0 8 3 -5 9 -27 12 -43 12 -25 0z"/>
<path d="M3915 3920 c10 -11 23 -20 28 -20 6 0 2 9 -8 20 -10 11 -23 20 -28
20 -6 0 -2 -9 8 -20z"/>
<path d="M426 4583 c-11 -11 -7 -20 34 -64 44 -48 45 -68 2 -26 -51 49 -55 30
-13 -58 16 -33 27 -63 25 -66 -2 -4 42 -49 98 -100 56 -52 110 -103 120 -115
11 -12 32 -21 50 -22 37 -1 61 -10 205 -75 61 -28 109 -55 106 -60 -3 -6 -1
-7 6 -3 18 11 63 -2 96 -28 47 -38 20 -43 -31 -7 -26 18 -48 30 -50 28 -7 -7
91 -67 124 -77 17 -4 67 -8 112 -8 63 0 86 4 104 19 13 11 29 19 35 19 27 0 7
18 -26 24 -21 3 -49 8 -63 11 -25 6 -25 5 -2 -5 35 -15 16 -32 -29 -27 -50 6
-59 14 -25 23 14 3 26 10 26 15 0 5 8 9 18 9 14 0 14 2 3 9 -8 5 -20 7 -27 4
-7 -2 -21 0 -31 7 -15 9 -15 10 7 4 24 -6 24 -6 5 9 -11 8 -23 13 -26 11 -4
-2 -12 3 -19 11 -10 12 -7 13 17 6 76 -23 108 -38 106 -49 -4 -17 2 -15 18 5
10 11 10 14 2 9 -7 -4 -13 -3 -13 1 0 5 -16 15 -35 22 -20 7 -32 17 -29 23 4
6 10 5 15 -3 6 -10 9 -10 9 -2 0 7 7 10 16 6 8 -3 25 -1 37 5 12 5 31 14 42
18 19 7 19 7 1 11 -10 3 -23 0 -29 -6 -6 -6 -22 -11 -37 -11 l-25 1 25 14 c22
12 23 14 7 20 -10 4 -35 5 -57 1 -23 -3 -41 -2 -45 4 -9 15 -95 57 -188 91
-44 16 -108 46 -141 66 -57 35 -184 152 -240 222 -15 18 -29 31 -33 28 -3 -3
16 -32 43 -64 l48 -58 -50 46 c-59 54 -134 113 -134 104 0 -3 -10 0 -22 6 -13
7 -32 13 -43 15 -11 1 -36 4 -56 8 -20 3 -39 3 -43 -1z m219 -333 c10 -11 16
-20 13 -20 -3 0 -13 9 -23 20 -10 11 -16 20 -13 20 3 0 13 -9 23 -20z m614
-246 c14 -12 -19 -1 -35 12 -18 14 -18 14 6 3 14 -6 27 -13 29 -15z m31 -14
c0 -5 -4 -10 -10 -10 -5 0 -10 5 -10 10 0 6 5 10 10 10 6 0 10 -4 10 -10z
m-65 -58 c-4 -10 0 -12 12 -8 14 6 15 4 7 -4 -9 -9 -17 -9 -32 -1 -10 6 -23 7
-27 3 -5 -4 -5 -1 -1 6 4 7 13 9 19 6 7 -4 -4 8 -23 25 l-35 32 43 -22 c28
-15 41 -28 37 -37z"/>
<path d="M2545 4544 l-30 -13 30 6 c32 6 41 11 34 17 -2 2 -17 -2 -34 -10z"/>
<path d="M3895 4380 c10 -11 20 -20 23 -20 3 0 -3 9 -13 20 -10 11 -20 20 -23
20 -3 0 3 -9 13 -20z"/>
<path d="M734 4121 c8 -12 66 -44 71 -39 2 2 -15 14 -37 27 -22 12 -37 18 -34
12z"/>
<path d="M5795 4079 c-22 -4 -43 -5 -47 -2 -5 2 -8 0 -8 -5 0 -5 -15 -14 -32
-20 l-33 -10 35 1 c19 1 38 6 42 11 10 15 143 22 134 7 -4 -6 -18 -11 -32 -11
-15 0 -23 -4 -19 -11 5 -7 -37 -10 -132 -8 -76 1 -142 0 -148 -1 -5 -1 -31 -2
-57 -2 -26 0 -45 -4 -42 -9 3 -5 10 -7 15 -4 5 4 9 1 9 -5 0 -8 -14 -10 -42
-6 -33 5 -38 4 -23 -4 17 -9 15 -10 -10 -6 -16 2 -38 -1 -47 -8 -10 -7 -45
-14 -79 -15 -34 -1 -70 -6 -81 -12 -10 -6 -29 -7 -41 -3 -19 6 -20 5 -9 -9 11
-13 8 -15 -22 -13 -20 1 -31 -3 -27 -7 5 -5 33 -10 62 -12 71 -4 93 -13 78
-31 -13 -16 -55 -19 -64 -4 -3 6 -17 10 -31 10 -13 0 -24 -4 -24 -10 0 -5 -9
-10 -20 -10 -42 0 -23 -22 54 -65 40 -22 60 -27 120 -27 39 1 87 6 106 12 19
6 89 15 155 21 65 5 140 15 165 20 46 11 207 13 270 4 32 -5 33 -4 10 5 -30
13 -12 29 25 22 21 -3 23 -7 14 -23 -7 -15 -6 -19 5 -19 10 0 13 6 10 15 -4
10 0 15 11 15 9 0 14 -4 11 -9 -3 -4 6 -6 19 -3 14 2 25 9 25 14 0 5 10 8 23
7 12 -2 28 0 35 4 19 13 14 37 -8 37 -29 0 -110 23 -110 31 0 5 5 11 10 14 15
9 12 25 -5 25 -21 0 -19 26 3 35 16 6 16 7 0 19 -22 16 -8 37 20 29 13 -3 19
-10 15 -17 -4 -6 1 -5 11 3 16 14 14 16 -26 29 -46 16 -208 22 -273 11z m260
-209 c7 -12 -2 -12 -30 0 -19 8 -19 9 2 9 12 1 25 -3 28 -9z"/>
<path d="M5708 4073 c7 -3 16 -2 19 1 4 3 -2 6 -13 5 -11 0 -14 -3 -6 -6z"/>
<path d="M978 4013 c7 -3 16 -2 19 1 4 3 -2 6 -13 5 -11 0 -14 -3 -6 -6z"/>
<path d="M1430 3990 c-8 -5 -12 -12 -9 -15 4 -3 12 1 19 10 14 17 11 19 -10 5z"/>
<path d="M4536 3850 c4 -8 13 -22 21 -31 8 -9 29 -45 48 -80 19 -35 35 -61 35
-57 0 19 -54 118 -81 149 -17 19 -27 27 -23 19z"/>
<path d="M1724 3576 c-3 -8 -4 -23 -2 -33 3 -11 6 -6 9 15 6 34 2 42 -7 18z"/>
<path d="M1725 3365 c4 -22 11 -44 15 -49 5 -4 4 11 -1 35 -13 56 -23 66 -14
14z"/>
<path d="M1742 3280 c0 -14 2 -19 5 -12 2 6 2 18 0 25 -3 6 -5 1 -5 -13z"/>
<path d="M1751 3243 c-1 -17 30 -95 36 -90 2 3 -5 26 -16 53 -11 27 -20 43
-20 37z"/>
<path d="M5066 3144 c-4 -11 -13 -14 -28 -11 -16 4 -18 3 -9 -6 15 -15 14 -30
-1 -21 -8 5 -9 2 -4 -11 5 -15 4 -16 -8 -6 -10 9 -16 9 -21 1 -7 -11 50 -69
67 -70 4 0 5 -10 3 -22 -4 -18 4 -28 36 -46 23 -13 38 -19 35 -13 -8 12 55 3
64 -9 3 -4 32 -10 65 -14 76 -9 397 -73 449 -90 25 -9 52 -10 75 -5 69 15 101
17 107 8 3 -5 8 -7 12 -5 4 2 13 -2 20 -10 11 -12 10 -14 -5 -14 -10 0 -28 7
-40 15 -14 10 -24 12 -28 5 -4 -6 7 -16 24 -23 17 -7 28 -16 24 -20 -3 -4 8
-7 25 -7 17 0 34 5 38 11 4 8 -1 9 -17 4 l-24 -8 20 23 c11 13 15 20 9 17 -7
-4 -17 0 -24 8 -7 8 -18 15 -26 15 -14 0 -40 39 -27 41 4 1 -3 5 -17 9 -23 8
-22 8 8 7 18 -1 40 -9 49 -19 9 -10 21 -18 27 -18 6 0 3 5 -7 11 -9 6 -15 15
-11 20 3 5 0 8 -6 7 -7 -2 -14 10 -16 27 -2 16 -8 31 -14 33 -5 2 -10 9 -10
16 0 18 -43 56 -64 56 -17 0 -56 17 -66 29 -12 16 -65 31 -105 31 -39 0 -101
7 -420 50 -44 6 -96 13 -116 15 -28 4 -38 1 -43 -11z m582 -71 c-10 -2 -26 -2
-35 0 -10 3 -2 5 17 5 19 0 27 -2 18 -5z m69 -19 c-6 -6 -47 9 -47 17 0 5 11
3 25 -3 14 -6 24 -13 22 -14z m-510 -40 c-3 -3 -12 -4 -19 -1 -8 3 -5 6 6 6
11 1 17 -2 13 -5z m-97 -8 c0 -2 -7 -6 -15 -10 -8 -3 -15 -1 -15 4 0 6 7 10
15 10 8 0 15 -2 15 -4z m137 -2 c-3 -3 -12 -4 -19 -1 -8 3 -5 6 6 6 11 1 17
-2 13 -5z m-103 -26 c-3 -4 -11 -5 -19 -1 -21 7 -19 12 4 10 11 0 18 -5 15 -9z
m253 6 c-3 -3 -12 -4 -19 -1 -8 3 -5 6 6 6 11 1 17 -2 13 -5z"/>
<path d="M1806 3092 c3 -13 17 -47 30 -75 13 -29 21 -41 18 -27 -4 14 -17 48
-30 75 -13 28 -21 39 -18 27z"/>
<path d="M395 3021 c-5 -5 -21 -11 -35 -13 -21 -2 -26 -9 -28 -40 -3 -35 2
-43 75 -115 86 -84 112 -108 128 -110 6 -1 19 -4 30 -7 17 -5 18 -7 5 -16 -9
-6 -10 -10 -3 -10 6 0 15 5 19 11 5 8 9 8 14 -1 4 -7 18 -14 31 -15 13 -1 31
-3 39 -4 12 -1 12 -3 2 -10 -9 -5 -1 -10 25 -15 56 -9 213 -17 179 -8 -66 16
25 36 99 22 6 -1 -3 -6 -20 -10 -21 -5 -9 -8 45 -7 61 0 68 1 35 7 l-40 7 35
2 c19 1 46 4 59 8 18 4 22 3 16 -6 -6 -10 -3 -11 11 -3 11 5 39 12 64 16 81
12 117 26 145 54 l27 27 -33 5 c-22 3 -39 0 -49 -9 -13 -13 -15 -13 -18 1 -2
12 -16 14 -77 10 -41 -2 -82 -1 -92 3 -10 5 -24 7 -32 6 -7 -1 -10 2 -6 9 4 7
18 10 31 7 13 -2 24 -1 24 2 0 4 21 7 48 8 55 3 172 34 172 46 0 5 -7 7 -15 3
-8 -3 -25 -1 -37 3 -23 9 -23 9 5 16 47 12 29 23 -37 21 -35 0 -62 -4 -59 -8
6 -11 -293 -2 -356 11 -29 6 -71 8 -92 5 -45 -8 -134 21 -123 38 4 6 2 8 -4 5
-5 -4 -23 -1 -39 7 -24 11 -74 30 -143 52 -8 3 -19 1 -25 -5z m332 -317 c-3
-3 -12 -4 -19 -1 -8 3 -5 6 6 6 11 1 17 -2 13 -5z m93 -23 c0 -4 -11 -6 -25
-3 -14 2 -25 6 -25 8 0 2 11 4 25 4 14 0 25 -4 25 -9z"/>
<path d="M1860 2951 c0 -6 4 -13 10 -16 6 -3 7 1 4 9 -7 18 -14 21 -14 7z"/>
<path d="M5978 2853 c7 -3 16 -2 19 1 4 3 -2 6 -13 5 -11 0 -14 -3 -6 -6z"/>
<path d="M1288 2813 c6 -2 18 -2 25 0 6 3 1 5 -13 5 -14 0 -19 -2 -12 -5z"/>
<path d="M5858 2743 c7 -3 16 -2 19 1 4 3 -2 6 -13 5 -11 0 -14 -3 -6 -6z"/>
<path d="M580 2690 c8 -5 22 -9 30 -9 10 0 8 3 -5 9 -27 12 -43 12 -25 0z"/>
<path d="M635 2690 c-3 -5 -1 -10 4 -10 6 0 11 5 11 10 0 6 -2 10 -4 10 -3 0
-8 -4 -11 -10z"/>
<path d="M4578 2606 c-8 -25 -11 -43 -7 -40 9 5 31 76 25 81 -2 2 -10 -17 -18
-41z"/>
<path d="M4814 2419 c-3 -5 -13 -8 -22 -7 -9 2 -18 -5 -20 -16 -5 -26 -24 -43
-43 -41 -14 3 -14 0 0 -29 22 -42 119 -144 156 -163 32 -17 158 -111 239 -177
28 -23 54 -41 58 -41 5 0 13 -7 18 -15 5 -8 10 -11 10 -7 0 4 6 3 13 -3 6 -5
48 -40 92 -78 44 -37 97 -80 118 -96 20 -16 37 -35 37 -43 0 -13 -3 -13 -17
-2 -10 7 7 -13 37 -45 51 -53 96 -86 118 -86 5 0 12 10 16 22 4 17 8 20 17 11
6 -6 17 -9 24 -6 7 2 28 -3 47 -13 32 -17 33 -17 18 2 -13 15 -10 15 21 -4 39
-23 49 -27 49 -14 0 4 -22 22 -49 40 -45 31 -48 35 -37 57 l11 24 22 -21 c13
-12 27 -17 35 -12 10 6 10 4 -1 -9 -8 -10 -11 -20 -7 -24 3 -3 6 -1 6 6 0 8 7
11 15 7 10 -4 14 0 12 14 -2 11 -24 34 -50 51 -26 17 -52 40 -58 50 -15 29 4
23 37 -12 37 -39 84 -65 84 -46 0 7 -71 70 -158 139 -87 70 -176 146 -198 168
-21 23 -68 57 -104 76 -70 37 -357 243 -433 310 -46 40 -99 56 -113 33z"/>
<path d="M1675 2160 c-23 -15 -47 -20 -102 -20 -49 0 -89 -7 -124 -20 -28 -11
-79 -23 -113 -27 -33 -3 -80 -14 -104 -25 -24 -10 -61 -18 -81 -18 -21 0 -64
-9 -96 -20 -32 -11 -65 -20 -74 -20 -9 0 -25 -7 -35 -15 -17 -13 -17 -17 -5
-32 13 -16 12 -17 -3 -5 -14 11 -21 11 -42 -3 -27 -18 -34 -35 -14 -35 6 0 1
-11 -12 -25 l-23 -25 78 0 c43 0 75 -3 72 -7 -4 -3 -31 -6 -59 -6 -33 0 -40
-2 -20 -4 28 -4 31 -7 21 -19 -6 -8 -20 -14 -31 -14 -30 0 -16 -24 18 -31 46
-10 317 -10 333 0 9 6 -7 7 -45 4 -32 -3 -57 -3 -54 0 11 12 155 45 160 37 7
-11 88 -4 104 9 7 6 15 8 18 6 11 -11 48 -13 54 -4 3 5 14 7 25 4 13 -4 19 -2
19 9 0 13 -5 14 -26 6 -14 -6 -33 -10 -42 -9 -9 0 24 13 73 28 102 31 163 60
217 104 32 25 36 33 25 46 -9 12 -9 13 1 7 15 -9 16 16 0 32 -8 8 -8 15 2 27
18 21 3 19 -31 -6 -16 -11 -28 -15 -27 -9 2 7 -3 15 -11 18 -9 3 -11 0 -6 -8
5 -8 4 -11 -3 -6 -5 3 -13 0 -15 -6 -4 -9 -6 -8 -6 3 -1 9 11 21 25 27 20 10
24 10 18 0 -4 -7 -3 -9 1 -5 11 9 18 57 10 57 -4 0 -25 -11 -48 -24 -32 -19
-57 -25 -103 -25 -34 0 -84 -8 -115 -19 -30 -11 -80 -22 -111 -25 -31 -3 -78
-15 -104 -26 -25 -12 -63 -21 -84 -21 -20 0 -59 -7 -86 -15 -70 -21 -88 -18
-29 5 28 11 69 20 93 20 23 0 69 11 102 25 35 15 79 25 107 25 28 0 67 9 93
22 30 14 73 22 130 26 80 4 130 21 130 43 0 14 -12 11 -45 -11z m-51 -69 c9
-13 -112 -62 -179 -72 -33 -5 -91 -11 -130 -14 l-70 -5 40 19 c22 11 56 20 75
20 37 1 58 7 150 40 59 22 105 27 114 12z m-19 -101 c-3 -5 -12 -10 -18 -10
-7 0 -6 4 3 10 19 12 23 12 15 0z"/>
<path d="M1687 1907 c4 -6 -1 -8 -11 -4 -11 5 -15 3 -10 -5 5 -8 2 -9 -10 -5
-11 4 -15 3 -10 -4 4 -7 0 -9 -12 -5 -19 5 -47 -5 -45 -18 1 -3 -2 -6 -6 -5
-5 1 -7 5 -6 10 2 4 -4 6 -13 2 -13 -5 -13 -7 -2 -14 11 -7 10 -11 -2 -20 -30
-21 34 3 87 33 56 31 71 45 48 45 -8 0 -11 -5 -8 -10z m-57 -31 c0 -3 -4 -8
-10 -11 -5 -3 -10 -1 -10 4 0 6 5 11 10 11 6 0 10 -2 10 -4z"/>
<path d="M1450 1814 l-65 -14 57 5 c31 3 67 9 80 14 31 13 7 11 -72 -5z"/>
<path d="M1318 1793 c12 -2 32 -2 45 0 12 2 2 4 -23 4 -25 0 -35 -2 -22 -4z"/>
<path d="M2246 1723 c-3 -21 -7 -44 -8 -50 -1 -7 -5 -13 -10 -13 -4 0 -8 -14
-8 -30 0 -17 -7 -47 -15 -66 -8 -20 -12 -41 -8 -47 3 -5 1 -7 -4 -4 -7 4 -28
-34 -53 -94 -44 -103 -102 -190 -175 -262 -25 -26 -31 -35 -15 -25 14 8 55 52
91 97 49 61 76 106 104 177 20 52 39 93 41 91 6 -5 -41 -124 -92 -235 -14 -29
-22 -57 -19 -63 4 -5 1 -8 -6 -7 -6 2 -14 -3 -17 -11 -3 -9 0 -11 8 -6 8 5 11
4 6 -3 -3 -6 -15 -9 -26 -7 -23 4 -36 -10 -19 -21 8 -5 9 -3 4 6 -5 9 -4 11 4
6 6 -4 9 -12 5 -17 -3 -6 -9 -8 -12 -5 -3 3 -12 -3 -20 -15 -8 -11 -20 -18
-29 -15 -9 4 -11 2 -7 -6 5 -8 2 -9 -10 -5 -11 5 -15 3 -10 -5 5 -8 2 -9 -10
-5 -11 5 -15 3 -10 -5 5 -7 2 -9 -9 -5 -12 4 -14 1 -11 -18 3 -15 -2 -25 -12
-29 -14 -5 -15 -4 -4 9 9 11 9 15 1 15 -7 0 -9 5 -5 13 5 8 3 8 -9 -2 -9 -7
-15 -17 -12 -21 3 -4 -15 -24 -39 -44 -38 -31 -45 -34 -49 -19 -3 14 -4 13 -3
-2 0 -11 -7 -31 -17 -45 -9 -13 -17 -40 -17 -60 l0 -35 18 35 c14 24 31 38 60
48 23 7 40 18 37 22 -3 5 0 12 6 16 8 5 9 3 4 -6 -6 -10 -4 -12 9 -7 29 11 30
-21 3 -57 -15 -18 -23 -36 -20 -40 4 -3 1 -6 -5 -6 -7 0 -12 -8 -12 -17 0 -15
2 -16 10 -3 5 8 10 11 10 6 0 -11 30 14 30 26 0 5 -5 6 -12 2 -6 -4 -8 -3 -5
3 4 6 16 13 26 16 19 5 19 3 5 -18 -10 -15 -12 -25 -5 -30 6 -3 11 -1 11 5 0
6 11 15 25 20 14 5 25 16 25 23 0 7 23 24 52 38 71 33 123 72 150 113 13 19
47 68 76 110 48 70 121 236 168 385 14 45 19 137 8 165 -10 25 -24 8 -24 -30
0 -19 -4 -34 -10 -34 -5 0 -6 7 -3 17 4 11 3 14 -5 9 -7 -4 -12 -22 -12 -41 0
-27 -5 -35 -27 -44 -21 -8 -22 -10 -6 -7 13 2 26 0 29 -5 3 -5 1 -9 -5 -9 -6
0 -8 -8 -4 -17 5 -15 3 -14 -10 2 -9 11 -17 16 -18 10 -3 -14 -6 -29 -9 -37
-1 -5 -3 -11 -4 -15 -7 -30 -19 -53 -27 -53 -5 0 -9 -8 -9 -18 0 -10 -3 -22
-7 -26 -5 -4 -8 -11 -9 -14 -1 -13 -25 -65 -27 -61 -2 2 -9 13 -17 24 -11 16
-11 17 0 8 19 -18 56 62 38 84 -9 11 -8 13 3 11 8 -2 13 3 12 10 -2 6 1 12 6
12 4 0 7 17 4 38 -2 28 -1 33 7 22 8 -12 9 -9 5 10 -3 14 1 42 10 62 8 22 15
64 14 100 -1 67 -4 64 -29 -39 -12 -47 -30 -59 -23 -15 5 33 4 114 -1 119 -2
2 -6 -13 -10 -34z m-53 -308 c-3 -9 -8 -14 -10 -11 -3 3 -2 9 2 15 9 16 15 13
8 -4z m-17 -54 c-3 -30 -48 -115 -67 -127 -9 -5 8 33 21 46 3 3 6 12 8 20 3
18 34 90 38 90 2 0 2 -13 0 -29z m44 9 c0 -5 -2 -10 -4 -10 -3 0 -8 5 -11 10
-3 6 -1 10 4 10 6 0 11 -4 11 -10z m-13 -115 c-11 -22 -19 -42 -19 -45 4 -14
-11 -37 -36 -54 -27 -19 -27 -19 -10 0 9 10 18 24 20 29 2 6 6 9 11 8 6 -3 9
8 6 20 0 1 5 15 11 31 8 22 7 32 -2 45 -12 14 -11 15 6 1 18 -14 18 -13 11 9
-6 21 -5 22 8 10 13 -12 12 -19 -6 -54z m-154 -140 c-10 -13 -25 -27 -33 -30
-8 -4 -2 8 14 24 36 37 43 40 19 6z m61 0 c-4 -8 -11 -15 -16 -15 -6 0 -5 6 2
15 7 8 14 15 16 15 2 0 1 -7 -2 -15z m-74 -160 c0 -2 -10 -9 -22 -15 -22 -11
-22 -10 -4 4 21 17 26 19 26 11z"/>
<path d="M4237 1658 c-2 -7 2 -26 10 -43 14 -29 14 -30 -4 -9 -10 12 -23 30
-30 40 -12 18 -12 18 -19 -3 -7 -24 -24 -31 -24 -10 -1 29 -21 -26 -22 -60 0
-21 -5 -43 -10 -50 -6 -7 -4 -22 6 -40 8 -16 22 -58 31 -93 41 -161 101 -328
174 -488 96 -209 113 -238 134 -234 9 1 21 -6 26 -17 6 -11 20 -19 31 -18 14
1 16 4 8 14 -5 7 -14 11 -18 8 -5 -3 -11 -1 -15 5 -3 5 -1 10 4 10 13 0 10 20
-6 37 -15 17 -26 17 -17 1 4 -8 3 -10 -2 -5 -5 5 -9 12 -9 15 -1 4 -7 18 -14
32 -13 22 -12 24 1 13 12 -10 15 -10 15 2 0 8 -7 15 -14 15 -8 0 -11 5 -8 10
3 6 0 10 -8 10 -21 0 -48 64 -34 80 10 10 8 12 -7 6 -16 -5 -17 -4 -6 9 9 11
9 15 1 15 -7 0 -9 5 -5 12 5 7 2 9 -9 5 -8 -3 -18 0 -20 6 -3 7 -13 29 -22 50
-12 29 -13 37 -3 32 7 -3 5 0 -4 8 -10 8 -15 17 -11 20 3 4 0 7 -7 7 -7 0 -11
3 -7 6 3 4 0 13 -8 21 -8 8 -13 24 -10 36 2 12 -2 36 -10 52 -9 17 -13 22 -10
12 17 -61 12 -62 -10 -3 -23 65 -34 115 -15 71 6 -13 9 -15 9 -5 0 8 -5 28
-12 44 -12 27 -14 28 -30 12 -22 -23 -22 -14 3 26 13 22 20 27 20 16 0 -10 3
-17 8 -15 4 1 8 -1 10 -5 1 -4 14 -19 27 -34 14 -15 32 -44 42 -65 9 -22 21
-39 25 -39 5 0 20 -24 32 -53 13 -28 53 -112 89 -185 36 -72 63 -132 61 -132
-2 0 3 -15 13 -32 9 -18 16 -37 15 -41 -2 -5 7 -25 19 -44 19 -30 23 -33 31
-19 7 12 13 14 21 7 17 -14 43 8 49 42 3 15 1 27 -4 27 -5 0 -8 8 -7 18 4 22
-10 62 -21 62 -9 0 -46 90 -42 103 1 4 -3 7 -9 7 -5 0 -7 5 -4 10 3 6 1 10 -5
10 -6 0 -8 5 -5 10 3 6 1 10 -5 10 -6 0 -8 5 -5 10 3 6 1 10 -5 10 -6 0 -8 4
-5 10 3 5 1 10 -5 10 -6 0 -8 5 -5 10 3 6 2 10 -3 10 -5 0 -21 23 -36 50 -15
28 -24 50 -21 50 4 0 -3 12 -14 26 -12 15 -21 34 -21 43 0 10 -4 21 -9 27 -11
12 -36 86 -33 98 2 4 -4 19 -13 32 -27 42 -16 38 15 -4 17 -23 33 -42 36 -42
6 0 5 3 -57 98 -26 40 -50 85 -54 100 -3 15 -23 51 -45 80 -22 29 -40 57 -40
62 0 14 -28 12 -33 -2z m-12 -289 c5 -14 1 -27 -9 -37 -10 -11 -16 -12 -16 -4
0 7 5 12 10 12 6 0 10 7 10 15 0 9 -6 12 -15 9 -11 -5 -13 -2 -9 10 9 22 21
20 29 -5z m15 -104 c-7 -9 -15 -13 -18 -10 -3 2 1 11 8 20 7 9 15 13 18 10 3
-2 -1 -11 -8 -20z m151 -390 c5 -5 9 -17 9 -27 0 -10 5 -18 11 -18 5 0 7 -4 4
-10 -3 -5 -1 -10 5 -10 6 0 8 -4 5 -10 -3 -5 -1 -10 5 -10 6 0 8 -5 4 -11 -4
-8 -13 -1 -22 17 -31 59 -142 307 -142 318 0 6 25 -43 56 -109 30 -66 60 -124
65 -130z m88 -189 c-3 -3 -11 5 -18 17 -13 21 -12 21 5 5 10 -10 16 -20 13
-22z"/>
<path d="M3216 1398 c-10 -32 -21 -60 -25 -62 -10 -7 -5 -130 8 -186 36 -160
52 -312 51 -460 -2 -168 0 -191 10 -185 4 3 5 15 3 29 -3 13 1 27 7 31 9 5 10
1 5 -15 -5 -16 -4 -20 5 -15 12 7 10 -7 -8 -54 -3 -9 -1 -12 5 -8 14 9 33 -45
27 -78 -2 -14 0 -25 5 -25 5 0 12 20 15 45 5 27 12 45 20 45 8 0 19 7 26 15 7
8 16 12 21 9 5 -3 12 2 15 10 3 9 14 16 23 16 19 0 18 -6 27 151 8 137 -2 263
-22 284 -9 9 -11 16 -4 20 8 5 7 11 0 20 -7 8 -9 18 -7 23 8 12 -31 183 -48
214 -8 14 -15 35 -15 46 0 10 -9 29 -20 42 -11 13 -20 30 -20 39 0 9 -5 23
-10 31 -7 11 -9 7 -6 -16 2 -21 -1 -31 -11 -31 -7 0 -13 7 -13 16 0 14 -2 14
-10 1 -11 -18 -16 -8 -28 60 l-9 45 -17 -57z m104 -82 c0 -3 -4 -8 -10 -11 -5
-3 -10 -1 -10 4 0 6 5 11 10 11 6 0 10 -2 10 -4z m117 -428 c-3 -7 -5 -2 -5
12 0 14 2 19 5 13 2 -7 2 -19 0 -25z m10 -50 c-3 -8 -6 -5 -6 6 -1 11 2 17 5
13 3 -3 4 -12 1 -19z"/>
<path d="M4440 1310 c6 -11 13 -20 16 -20 2 0 0 9 -6 20 -6 11 -13 20 -16 20
-2 0 0 -9 6 -20z"/>
<path d="M4471 1305 c0 -5 6 -19 14 -29 18 -24 20 -40 3 -30 -7 4 -8 3 -4 -5
4 -6 12 -8 18 -5 7 5 9 1 5 -9 -4 -10 -2 -16 5 -14 6 1 13 -4 16 -12 3 -9 0
-11 -8 -6 -9 5 -11 4 -6 -4 4 -6 12 -8 18 -5 8 5 9 1 5 -10 -5 -11 -3 -15 5
-10 8 5 9 2 5 -10 -4 -10 -3 -15 3 -11 5 3 16 -8 25 -25 8 -16 18 -30 21 -30
7 0 -82 169 -106 200 -11 14 -20 21 -19 15z"/>
<path d="M4356 1081 c-4 -6 -2 -11 4 -11 6 0 8 -4 5 -10 -3 -5 -1 -10 5 -10 6
0 8 -4 5 -10 -3 -5 -1 -10 4 -10 14 0 13 10 -3 39 -8 15 -16 20 -20 12z"/>
<path d="M1806 1054 c-14 -15 -26 -31 -26 -37 0 -6 1 -8 3 -6 1 2 15 19 31 37
36 38 30 43 -8 6z"/>
<path d="M4617 1027 c-3 -9 -3 -17 2 -17 12 0 32 -50 25 -63 -5 -9 -4 -9 5 -1
9 8 7 21 -7 54 -14 33 -20 40 -25 27z"/>
<path d="M4380 1009 c0 -5 5 -7 10 -4 6 3 10 8 10 11 0 2 -4 4 -10 4 -5 0 -10
-5 -10 -11z"/>
<path d="M4360 995 c0 -5 5 -17 10 -25 5 -8 10 -10 10 -5 0 6 -5 17 -10 25 -5
8 -10 11 -10 5z"/>
<path d="M4659 938 c-6 -12 -3 -58 4 -58 4 0 5 -4 2 -10 -3 -5 -2 -10 4 -10 6
0 15 -15 21 -32 l10 -33 -6 35 c-2 19 -6 43 -7 52 -1 9 -6 14 -11 11 -5 -4 -7
1 -3 11 5 11 3 15 -5 10 -8 -5 -9 -2 -5 9 5 13 1 25 -4 15z"/>
<path d="M4426 917 c3 -10 9 -15 12 -12 3 3 0 11 -7 18 -10 9 -11 8 -5 -6z"/>
<path d="M1810 881 c0 -5 7 -12 16 -15 14 -5 15 -4 4 9 -14 17 -20 19 -20 6z"/>
<path d="M4430 850 c6 -11 12 -20 14 -20 2 0 2 9 -1 20 -3 11 -9 20 -15 20 -5
0 -4 -9 2 -20z"/>
<path d="M4477 821 c10 -19 24 -36 32 -39 8 -3 6 3 -5 15 -11 11 -25 28 -32
39 -7 10 -5 4 5 -15z"/>
<path d="M3430 481 c0 -10 -3 -33 -6 -50 -6 -26 -4 -31 12 -30 11 0 14 3 7 6
-9 3 -11 18 -6 49 3 24 3 44 -1 44 -3 0 -6 -8 -6 -19z"/>
<path d="M3385 439 c-4 -6 -5 -12 -2 -15 2 -3 7 2 10 11 7 17 1 20 -8 4z"/>
</g>
</svg>
